<svg width="257" height="269" viewBox="0 0 257 269" fill="none" xmlns="http://www.w3.org/2000/svg">
<path d="M242.1 197.5C242.1 236.712 189.717 268.5 125.1 268.5C60.4825 268.5 8.09984 236.712 8.09984 197.5C8.09984 193.548 8.63202 189.671 9.65526 185.894C18.7838 152.203 66.9956 126.5 125.1 126.5C180.868 126.5 227.524 150.178 239.256 181.871C239.894 183.594 240.429 185.342 240.856 187.11C241.675 190.501 242.1 193.971 242.1 197.5Z" fill="#FF0000"/>
<path d="M8.09984 121C10.3625 131.995 13.8045 137.803 14.5998 149C15.6298 163.5 9.65526 185.894 9.65526 185.894C18.7838 152.203 66.9956 126.5 125.1 126.5C180.868 126.5 227.524 150.178 239.256 181.871C236.062 170.772 229.538 144.437 233.6 126.5C236.211 114.971 240.33 109.316 245.1 98.5C248.836 90.0271 253.198 86.0626 255.1 77C256.824 68.7827 256.933 63.6937 255.1 55.5C253.155 46.8074 245.1 35 245.1 35C245.1 35 247.781 52.366 245.1 60C242.812 66.5136 240.487 71.4804 233.6 71C226.265 70.4883 227.16 62.8315 226.6 55.5C225.656 43.1588 237.105 32.8706 233.6 21C230.778 11.4419 219.1 0 219.1 0C219.1 0 224.413 12.5756 224.1 21C223.828 28.2905 224.69 34.3124 219.1 39C214.781 42.621 210.071 45.1542 205.1 42.5C200.128 39.8458 195.313 28.9064 197.1 25L197.228 24.721C198.945 20.968 200.124 18.392 201.1 14C202.1 9.5 205.1 4.5 205.1 4.5C205.1 4.5 196.954 9.4312 193.1 14C189.883 17.8141 189.434 20.8935 186.6 25C183.759 29.1159 182.345 31.6851 178.6 35C174.211 38.8849 171.017 44.7382 165.6 42.5C159.284 39.8902 166.863 31.7165 165.6 25C164.767 20.5697 164.078 18.0508 162.1 14C160.127 9.96061 155.6 4.5 155.6 4.5C155.6 4.5 152.277 10.0502 152.1 14C151.897 18.5034 155.729 20.4939 155.6 25C155.481 29.1358 154.41 31.5677 152.1 35C149.545 38.7953 147.671 42.3041 143.1 42.5C137.979 42.7194 135.897 38.2947 133.1 34C128.804 27.4045 134.355 20.9177 130.6 14C128.225 9.62487 122.1 4.5 122.1 4.5C122.1 4.5 122.38 10.3006 122.1 14C121.649 19.9568 121.326 23.4562 119.1 29C116.131 36.3939 114.638 42.9193 107.1 45.5L106.919 45.5619C102.745 46.9917 99.0686 48.2511 95.5998 45.5C91.1632 41.9813 95.2959 36.6544 95.5998 31C95.9586 24.3249 100.157 20.1764 97.5998 14C95.5931 9.15224 88.0998 4.5 88.0998 4.5V10.5C88.0998 16.1626 91.729 20.6533 88.0998 25C85.9724 27.5481 83.9139 29.1893 80.5998 29C74.5471 28.6543 76.5998 14 76.5998 14C76.5998 14 72.4548 20.4313 72.5998 25C72.7333 29.204 75.8146 30.8679 76.5998 35C77.3654 39.0284 79.3 42.4141 76.5998 45.5C73.5139 49.0268 68.8472 47.4803 64.5998 45.5C59.9276 43.3217 57.8185 40.0089 56.5998 35C55.278 29.567 60.1247 26.5668 59.5998 21C58.9108 13.6925 50.5998 4.5 50.5998 4.5C50.5998 4.5 51.2644 12.1639 50.5998 17C49.5824 24.4041 47.3766 28.2829 44.0998 35C41.2955 40.7486 41.5404 46.6294 35.5998 49C26.1955 52.7528 22.4262 38.5635 19.0998 29C15.9567 19.9632 19.0998 4.5 19.0998 4.5C19.0998 4.5 9.42475 16.0117 8.09984 25C6.25337 37.5266 10.9177 49.8933 12.0999 62.5C13.2239 74.4874 26.1116 82.473 14.5998 86C1.98989 89.8634 0.0998397 55.5 0.0998397 55.5C0.0998397 55.5 -0.1248 64.951 0.0998397 71C0.833699 90.7609 4.11392 101.631 8.09984 121Z" fill="#FF0000"/>
<path d="M38 169H73V227C73 227 62.3342 227 55.5 227C48.6658 227 38 227 38 227V169Z" fill="black"/>
<path d="M176 169H211V227H176V169Z" fill="black"/>
<rect x="26" y="142" width="203" height="24" fill="black"/>
<rect x="38" y="73" width="180" height="65" fill="black"/>
<rect x="20.0999" y="123.5" width="210" height="4" fill="#FF0000"/>
<rect x="20.0999" y="105.5" width="210" height="4" fill="#FF0000"/>
<rect x="20.0999" y="87.5" width="210" height="4" fill="#FF0000"/>
</svg>
